# xmcd CD database file
#
# Track frame offsets:
#	150
#	19706
#	42624
#	66467
#	86227
#	105319
#	125158
#	145388
#	172728
#
# Disc length: 2813 seconds
#
# Revision: 0
# Processed by: cddbd v1.5.2PL0 Copyright (c) Steve Scherf et al.
# Submitted via: CDex 1.70beta2
#
DISCID=7f0afb09
DTITLE=B.B. King - There's Always One More Time - MP3
DYEAR=1991
DGENRE=Blues
TTITLE0=I'm Moving On
TTITLE1=Back In L.A.
TTITLE2=The Blues Come Over Me
TTITLE3=Fool Me Once
TTITLE4=The Lowdown
TTITLE5=Mean And Evil
TTITLE6=Something Up My Sleeve
TTITLE7=Roll Roll Roll
TTITLE8=There's Always One More Time
EXTD=YEAR: 1991
EXTT0=
EXTT1=
EXTT2=
EXTT3=
EXTT4=
EXTT5=
EXTT6=
EXTT7=
EXTT8=
PLAYORDER=
